<svg xmlns="http://www.w3.org/2000/svg" aria-hidden="true" style="position:absolute;width:0;height:0;overflow:hidden">
  <defs>
    <symbol id="icon-arrow_inactive_left" viewBox="0 0 32 32">
      <path fill="none" stroke="#2a2d32" stroke-width=".667"
        d="M26.667 31.667H5.334a5 5 0 0 1-5-5V5.334a5 5 0 0 1 5-5h21.333a5 5 0 0 1 5 5v21.333a5 5 0 0 1-5 5z"
        style="stroke:var(--color1, #2a2d32)" />
      <path fill="none" stroke="#383a3d" stroke-linecap="round" stroke-linejoin="round" stroke-width="1.333"
        d="M21.333 16H10.666M14.667 20l-4-4 4-4" style="stroke:var(--color2, #383a3d)" />
    </symbol>
    <symbol id="icon-Arrow_input_accordion" viewBox="0 0 32 32">
      <path fill="#14c57c"
        d="M16 0a15.997 15.997 0 0 1 16 16 16.003 16.003 0 0 1-16 16A16.003 16.003 0 0 1 0 16 16.003 16.003 0 0 1 16 0zm-1.993 19.157L10.453 15.6a1.362 1.362 0 0 0-.97-.401 1.37 1.37 0 0 0-1.372 1.371c0 .364.145.713.402.97l4.526 4.526a1.357 1.357 0 0 0 .971.404 1.38 1.38 0 0 0 .971-.404l9.371-9.374a1.366 1.366 0 0 0 .41-.972 1.368 1.368 0 0 0-.848-1.275 1.384 1.384 0 0 0-1.055.003c-.167.07-.318.173-.445.302l-8.405 8.405z"
        style="fill:var(--color3, #14c57c)" />
    </symbol>
    <symbol id="icon-Arrow_right" viewBox="0 0 32 32">
      <path fill="#14c57c"
        d="M1.067 14.933a1.067 1.067 0 0 0 0 2.134v-2.133zm30.621 1.821a1.065 1.065 0 0 0 0-1.508L24.9 8.458a1.065 1.065 0 1 0-1.508 1.508L29.426 16l-6.034 6.034a1.065 1.065 0 1 0 1.508 1.508l6.788-6.788zm-30.621.313h29.867v-2.133H1.067v2.133z"
        style="fill:var(--color3, #14c57c)" />
    </symbol>
    <symbol id="icon-Arrow_visit_up" viewBox="0 0 32 32">
      <path fill="none" stroke="#14c57c" stroke-linecap="round" stroke-linejoin="round" stroke-width="3.556"
        d="M3.111 28.889 28.889 3.111m0 0h-24m24 0v24" style="stroke:var(--color3, #14c57c)" />
    </symbol>
    <symbol id="icon-arrow-narrow-right" viewBox="0 0 32 32">
      <path fill="none" stroke="#f0f0f0" stroke-linecap="round" stroke-linejoin="round" stroke-width="2.667"
        d="M5.333 16h21.333M18.667 8l8 8-8 8" style="stroke:var(--color4, #f0f0f0)" />
    </symbol>
    <symbol id="icon-arrrow_right_default" viewBox="0 0 32 32">
      <path fill="none" stroke="#2a2d32" stroke-width=".667"
        d="M5.333.333h21.333a5 5 0 0 1 5 5v21.333a5 5 0 0 1-5 5H5.333a5 5 0 0 1-5-5V5.333a5 5 0 0 1 5-5z"
        style="stroke:var(--color1, #2a2d32)" />
      <path fill="none" stroke="#f0f0f0" stroke-linecap="round" stroke-linejoin="round" stroke-width="1.333"
        d="M10.667 16h10.667M17.333 12l4 4-4 4" style="stroke:var(--color4, #f0f0f0)" />
    </symbol>
    <symbol id="icon-brush_icon" viewBox="0 0 32 32">
      <path fill="none" stroke="#14c57c" stroke-linecap="round" stroke-linejoin="round" stroke-width="2.667"
        d="M17.037 20.001 12 14.964M2.667 29.332c2.667 0 6.144.456 7.966-1.367a4.668 4.668 0 0 0-6.6-6.6c-1.823 1.822 0 5.3-1.367 7.967z"
        style="stroke:var(--color3, #14c57c)" />
      <path fill="none" stroke="#14c57c" stroke-linecap="round" stroke-linejoin="round" stroke-width="2.667"
        d="M10.667 21.332c-.655-.655-.983-.983-1.168-1.326a2.668 2.668 0 0 1 .05-2.623c.198-.336.538-.651 1.218-1.28L23.924 3.92a2.94 2.94 0 0 1 4.153 4.153L15.894 21.23c-.63.68-.944 1.02-1.28 1.218-.805.475-1.8.495-2.623.05-.343-.185-.671-.513-1.326-1.168z"
        style="stroke:var(--color3, #14c57c)" />
    </symbol>
    <symbol id="icon-Button-down" viewBox="0 0 32 32">
      <path fill="none" stroke="#f0f0f0" stroke-linecap="round" stroke-width="2" d="m22 13-6 6-6-6"
        style="stroke:var(--color4, #f0f0f0)" />
    </symbol>
    <symbol id="icon-Button-up" viewBox="0 0 32 32">
      <path fill="none" stroke="#f0f0f0" stroke-linecap="round" stroke-width="2" d="m22 19-6-6-6 6"
        style="stroke:var(--color4, #f0f0f0)" />
    </symbol>
    <symbol id="icon-email_icon" viewBox="0 0 32 32">
      <path fill="none" stroke="#14c57c" stroke-linecap="round" stroke-linejoin="round" stroke-width="1.333"
        d="M29 9v14a3.004 3.004 0 0 1-3 3H6a3.004 3.004 0 0 1-3-3V9m26 0a3.004 3.004 0 0 0-3-3H6a3.004 3.004 0 0 0-3 3m26 0v.324a2.998 2.998 0 0 1-1.427 2.555l-10 6.153a3.004 3.004 0 0 1-3.146 0l-10-6.152A3.001 3.001 0 0 1 3 9.325V9"
        style="stroke:var(--color3, #14c57c)" />
    </symbol>
    <symbol id="icon-gps_icon" viewBox="0 0 32 32">
      <path fill="none" stroke="#14c57c" stroke-linecap="round" stroke-linejoin="round" stroke-width="1.333"
        d="M20 14a4.003 4.003 0 0 1-4 4 4.003 4.003 0 0 1-4-4 4.003 4.003 0 0 1 4-4 4.003 4.003 0 0 1 4 4v0z"
        style="stroke:var(--color3, #14c57c)" />
      <path fill="none" stroke="#14c57c" stroke-linecap="round" stroke-linejoin="round" stroke-width="1.333"
        d="M26 14c0 9.523-10 15-10 15S6 23.523 6 14a10.001 10.001 0 0 1 20 0v0z"
        style="stroke:var(--color3, #14c57c)" />
    </symbol>
    <symbol id="icon-hourglass_icon" viewBox="0 0 32 32">
      <path fill="none" stroke="#14c57c" stroke-linecap="round" stroke-linejoin="round" stroke-width="2.667"
        d="M24.217 2.667H7.783c-.617 0-1.117.5-1.117 1.117a13.4 13.4 0 0 0 3.925 9.475l1.626 1.626c.161.161.242.242.3.32a1.335 1.335 0 0 1 0 1.594c-.058.077-.139.158-.3.32l-1.626 1.626a13.4 13.4 0 0 0-3.925 9.475c0 .617.5 1.117 1.117 1.117h16.434c.617 0 1.117-.5 1.117-1.117a13.4 13.4 0 0 0-3.925-9.475l-1.626-1.626c-.161-.161-.242-.242-.3-.32a1.332 1.332 0 0 1 0-1.594c.058-.077.139-.158.3-.32l1.626-1.626a13.4 13.4 0 0 0 3.925-9.475c0-.617-.5-1.117-1.117-1.117z"
        style="stroke:var(--color3, #14c57c)" />
    </symbol>
    <symbol id="icon-Icon_button_down" viewBox="0 0 32 32">
      <path fill="none" stroke="#f0f0f0" stroke-linecap="round" stroke-width="2.667" d="m24 12-8 8-8-8"
        style="stroke:var(--color4, #f0f0f0)" />
    </symbol>
    <symbol id="icon-Icon_button_up" viewBox="0 0 32 32">
      <path fill="none" stroke="#f0f0f0" stroke-linecap="round" stroke-width="2.667" d="m24 20-8-8-8 8"
        style="stroke:var(--color4, #f0f0f0)" />
    </symbol>
    <symbol id="icon-message_chat_icon" viewBox="0 0 32 32">
      <path fill="#14c57c"
        d="M5.333 0h21.333a5.333 5.333 0 0 1 5.333 5.333v21.333a5.333 5.333 0 0 1-5.333 5.333H5.333A5.333 5.333 0 0 1 0 26.666V5.333A5.333 5.333 0 0 1 5.333 0z"
        opacity=".1" style="fill:var(--color3, #14c57c)" />
      <path fill="none" stroke="#14c57c" stroke-linecap="round" stroke-linejoin="round" stroke-width="1.333"
        d="M12.063 15.486a5.398 5.398 0 0 1-.063-.819c0-2.946 2.403-5.333 5.368-5.333s5.368 2.388 5.368 5.333c0 .665-.123 1.302-.347 1.89-.047.122-.07.183-.08.231s-.015.08-.016.129c-.001.049.005.102.019.21l.268 2.18c.029.236.044.354.004.44a.334.334 0 0 1-.171.168c-.087.037-.204.02-.44-.014l-2.123-.311c-.111-.016-.166-.024-.217-.024s-.084.004-.133.014-.113.034-.239.081a5.379 5.379 0 0 1-2.714.279m-3.459 2.727c1.977 0 3.579-1.642 3.579-3.667s-1.602-3.667-3.579-3.667S9.509 16.975 9.509 19c0 .407.065.799.184 1.164.051.155.076.232.084.285.009.055.01.086.007.142a1.563 1.563 0 0 1-.043.234l-.408 1.841 1.997-.273c.109-.015.163-.022.211-.022.05 0 .077.003.126.013.047.009.116.034.255.083a3.5 3.5 0 0 0 1.166.199z"
        style="stroke:var(--color3, #14c57c)" />
    </symbol>
    <symbol id="icon-message-chat-icon" viewBox="0 0 32 32">
      <path fill="none" stroke="#14c57c" stroke-linecap="round" stroke-linejoin="round" stroke-width="2.667"
        d="M8.126 14.972A10.66 10.66 0 0 1 8 13.334C8 7.443 12.807 2.667 18.737 2.667s10.737 4.776 10.737 10.667c0 1.331-.245 2.605-.693 3.779-.093.244-.14.366-.161.461s-.029.161-.031.257c-.002.097.011.205.037.42l.537 4.36c.058.472.087.708.009.88a.667.667 0 0 1-.343.335c-.173.075-.409.04-.879-.029l-4.247-.623a2.965 2.965 0 0 0-.434-.048c-.1.001-.169.008-.267.028s-.225.068-.477.163a10.78 10.78 0 0 1-3.787.683c-.558 0-1.105-.042-1.64-.124m-6.923 5.457c3.953 0 7.158-3.283 7.158-7.333s-3.205-7.333-7.158-7.333c-3.953 0-7.158 3.283-7.158 7.333 0 .814.13 1.597.369 2.329.101.309.152.464.168.57.017.11.02.172.014.284-.006.107-.033.227-.086.469l-.815 3.682 3.993-.545c.218-.03.327-.045.422-.044.1.001.153.006.252.026.093.019.232.067.51.165a6.994 6.994 0 0 0 2.332.398z"
        style="stroke:var(--color3, #14c57c)" />
    </symbol>
    <symbol id="icon-phone_icon" viewBox="0 0 32 32">
      <path fill="none" stroke="#14c57c" stroke-linecap="round" stroke-linejoin="round" stroke-width="1.333"
        d="M3 9c0 11.045 8.955 20 20 20h3a3.004 3.004 0 0 0 3-3v-1.829a1.5 1.5 0 0 0-1.136-1.455l-5.897-1.475a1.498 1.498 0 0 0-1.564.556l-1.293 1.724c-.376.501-1.025.723-1.613.507a16.028 16.028 0 0 1-9.524-9.524c-.216-.588.005-1.237.507-1.613l1.724-1.293c.484-.361.703-.979.556-1.564L9.285 4.137A1.498 1.498 0 0 0 7.83 3.001H6.001a3.004 3.004 0 0 0-3 3v3z"
        style="stroke:var(--color3, #14c57c)" />
    </symbol>
    <symbol id="icon-switch_dark" viewBox="0 0 32 32">
      <path fill="#2a2d32" d="M8 8h16a8 8 0 0 1 0 16H8A8 8 0 0 1 8 8z" style="fill:var(--color1, #2a2d32)" />
      <path fill="#00b068" d="M21.333 22.112a6.668 6.668 0 0 0 0-12.224 6.667 6.667 0 1 1 0 12.224z"
        style="fill:var(--color5, #00b068)" />
    </symbol>
    <symbol id="icon-switch_light" viewBox="0 0 32 32">
      <path fill="#e4e5e6" d="M8 8h16a8 8 0 0 1 0 16H8A8 8 0 0 1 8 8z" style="fill:var(--color6, #e4e5e6)" />
      <path fill="#00b068" d="M14.667 16a6.667 6.667 0 1 1-13.334 0 6.667 6.667 0 0 1 13.334 0z"
        style="fill:var(--color5, #00b068)" />
    </symbol>
    <symbol id="icon-user_icon" viewBox="0 0 32 32">
      <path fill="none" stroke="#14c57c" stroke-linecap="round" stroke-linejoin="round" stroke-width="2.667"
        d="M26.667 28c0-1.861 0-2.791-.23-3.548a5.333 5.333 0 0 0-3.556-3.556c-.757-.23-1.687-.23-3.548-.23h-6.667c-1.861 0-2.791 0-3.548.23a5.335 5.335 0 0 0-3.556 3.556c-.23.757-.23 1.687-.23 3.548M16 16a6 6 0 1 0 0-12 6 6 0 0 0 0 12z"
        style="stroke:var(--color3, #14c57c)" />
    </symbol>
    <symbol id="icon-burger_menu" viewBox="0 0 44 32">
      <path
        d="M0.668 30.052v-2.667h42.667v2.667h-42.667zM0.668 17.332v-2.667h42.667v2.667h-42.667zM0.668 4.612v-2.667h42.667v2.667h-42.667z">
      </path>
    </symbol>
    <symbol id="icon-close_icon_btn" viewBox="0 0 32 32">
<path stroke-linejoin="round" stroke-linecap="round" stroke-miterlimit="4" stroke-width="2" d="M7 7l18 18"></path>
<path stroke-linejoin="round" stroke-linecap="round" stroke-miterlimit="4" stroke-width="2" d="M7 25l18-18"></path>
</symbol>
    
  </defs>
</svg>
