<svg width="14" height="8" viewBox="0 0 14 8" fill="none" xmlns="http://www.w3.org/2000/svg">
<path d="M0.5 0.75H1.78936C2.62164 0.75 3.18377 0.787472 3.47576 0.862415C3.77047 0.937358 3.99423 1.06048 4.14704 1.23178C4.29985 1.40308 4.39536 1.59445 4.43356 1.8059C4.47177 2.01467 4.49087 2.42686 4.49087 3.04246V5.31887C4.49087 5.90236 4.46222 6.29313 4.40491 6.4912C4.35034 6.68659 4.25346 6.84049 4.11429 6.9529C3.97513 7.06264 3.80321 7.14026 3.59855 7.18576C3.39389 7.22859 3.08554 7.25 2.67349 7.25H0.5V0.75ZM2.22324 1.86211V6.13789C2.47156 6.13789 2.62437 6.08972 2.68168 5.99336C2.73898 5.89433 2.76763 5.62801 2.76763 5.19441V2.66909C2.76763 2.37467 2.75808 2.18597 2.73898 2.103C2.71988 2.02002 2.67622 1.9598 2.608 1.92233C2.53978 1.88218 2.41152 1.86211 2.22324 1.86211Z" fill="#14C57C"/>
<path d="M5.52645 0.75H8.39987V2.0508H7.24969V3.28335H8.3262V4.51992H7.24969V5.9492H8.51448V7.25H5.52645V0.75Z" fill="#14C57C"/>
<path d="M13.5 0.75L12.6241 7.25H10.0085L9.01385 0.75H10.8312C11.0414 2.54061 11.1914 4.0542 11.2815 5.29077C11.3715 4.04082 11.4657 2.93005 11.5639 1.95846L11.6826 0.75H13.5Z" fill="#14C57C"/>
</svg>
